<!DOCTYPE svg PUBLIC "-//W3C//DTD SVG 1.1//EN" "http://www.w3.org/Graphics/SVG/1.1/DTD/svg11.dtd">
<!-- Uploaded to: SVG Repo, www.svgrepo.com, Transformed by: SVG Repo Mixer Tools -->
<svg fill="#ffffff" height="800px" width="800px" version="1.1" id="Layer_1" xmlns="http://www.w3.org/2000/svg" xmlns:xlink="http://www.w3.org/1999/xlink" viewBox="0 0 512 512" xml:space="preserve">
<g id="SVGRepo_bgCarrier" stroke-width="0"/>
<g id="SVGRepo_tracerCarrier" stroke-linecap="round" stroke-linejoin="round"/>
<g id="SVGRepo_iconCarrier"> <g> <g> <g> <path d="M362.667,208.114V106.667C362.667,47.759,314.907,0,256,0S149.333,47.759,149.333,106.667v101.447 c-39.013,31.277-64,79.327-64,133.219C85.333,435.59,161.743,512,256,512s170.667-76.41,170.667-170.667 C426.667,287.441,401.679,239.391,362.667,208.114z M192,106.667c0-35.343,28.657-64,64-64s64,28.657,64,64v76.419 c-14.862-6.016-30.761-10.003-47.358-11.609c-0.156-0.015-0.314-0.027-0.47-0.042c-1.192-0.112-2.386-0.217-3.584-0.304 c-0.394-0.029-0.789-0.049-1.184-0.075c-0.979-0.065-1.959-0.13-2.942-0.178c-0.687-0.034-1.377-0.053-2.065-0.078 c-0.71-0.026-1.419-0.06-2.131-0.077c-1.419-0.035-2.84-0.054-4.264-0.054s-2.845,0.019-4.264,0.054 c-0.713,0.018-1.421,0.051-2.131,0.077c-0.689,0.026-1.378,0.045-2.065,0.078c-0.984,0.048-1.963,0.114-2.942,0.178 c-0.394,0.026-0.79,0.046-1.184,0.075c-1.199,0.087-2.393,0.192-3.584,0.304c-0.157,0.015-0.314,0.026-0.47,0.042 c-16.598,1.606-32.497,5.593-47.358,11.609V106.667z M256,469.333c-70.693,0-128-57.307-128-128 c0-42.853,21.063-80.783,53.396-104.015c0.501-0.294,0.997-0.606,1.486-0.948c17.304-12.085,37.172-19.704,58.177-22.164 c0.133-0.016,0.267-0.031,0.4-0.046c3.01-0.343,6.044-0.575,9.095-0.704c0.335-0.014,0.67-0.027,1.006-0.038 c1.476-0.051,2.956-0.085,4.44-0.085s2.964,0.034,4.44,0.085c0.336,0.011,0.671,0.024,1.006,0.038 c3.052,0.129,6.086,0.361,9.096,0.704c0.133,0.015,0.266,0.03,0.399,0.046c21.005,2.459,40.874,10.079,58.177,22.164 c0.489,0.341,0.985,0.654,1.486,0.948C362.938,260.55,384,298.48,384,341.333C384,412.026,326.693,469.333,256,469.333z"/> <path d="M256,256c-35.355,0-64,28.645-64,64c0,27.872,17.808,51.562,42.667,60.346v24.987c0,11.782,9.551,21.333,21.333,21.333 s21.333-9.551,21.333-21.333v-24.987C302.192,371.562,320,347.872,320,320C320,284.645,291.355,256,256,256z M256,341.333 c-11.791,0-21.333-9.542-21.333-21.333s9.542-21.333,21.333-21.333s21.333,9.542,21.333,21.333S267.791,341.333,256,341.333z"/> </g> </g> </g> </g>
</svg>