<!DOCTYPE svg PUBLIC "-//W3C//DTD SVG 1.1//EN" "http://www.w3.org/Graphics/SVG/1.1/DTD/svg11.dtd"><!-- Uploaded to: SVG Repo, www.svgrepo.com, Transformed by: SVG Repo Mixer Tools --><svg fill="#FFFFFF" version="1.1" id="Layer_1" xmlns:x="&amp;ns_extend;" xmlns:i="&amp;ns_ai;" xmlns:graph="&amp;ns_graphs;" xmlns="http://www.w3.org/2000/svg" xmlns:xlink="http://www.w3.org/1999/xlink" width="800px" height="800px" viewBox="0 0 24 24" enable-background="new 0 0 24 24" xml:space="preserve" stroke="#FFFFFF" stroke-width="0.00024000000000000003"><g id="SVGRepo_bgCarrier" stroke-width="0"/><g id="SVGRepo_tracerCarrier" stroke-linecap="round" stroke-linejoin="round"/><g id="SVGRepo_iconCarrier"> <metadata> <sfw> <slices> </slices> <slicesourcebounds width="505" height="984" bottomleftorigin="true" x="0" y="-984"> </slicesourcebounds> </sfw> </metadata> <g> <g> <g> <path d="M12,7c-1.7,0-3-1.3-3-3s1.3-3,3-3s3,1.3,3,3S13.7,7,12,7z M12,3c-0.6,0-1,0.4-1,1s0.4,1,1,1s1-0.4,1-1S12.6,3,12,3z"/> </g> </g> <g> <g> <path d="M12,23c-1.7,0-3-1.3-3-3s1.3-3,3-3s3,1.3,3,3S13.7,23,12,23z M12,19c-0.6,0-1,0.4-1,1s0.4,1,1,1s1-0.4,1-1S12.6,19,12,19 z"/> </g> </g> <g> <g> <path d="M12,15c-1.7,0-3-1.3-3-3s1.3-3,3-3s3,1.3,3,3S13.7,15,12,15z M12,11c-0.6,0-1,0.4-1,1s0.4,1,1,1s1-0.4,1-1S12.6,11,12,11 z"/> </g> </g> </g> </g></svg>